<?xml version="1.0" standalone="no"?>
<!DOCTYPE svg PUBLIC "-//W3C//DTD SVG 20010904//EN"
 "http://www.w3.org/TR/2001/REC-SVG-20010904/DTD/svg10.dtd">
<svg version="1.0" xmlns="http://www.w3.org/2000/svg"
 width="625.000000pt" height="399.000000pt" viewBox="0 0 625.000000 399.000000"
 preserveAspectRatio="xMidYMid meet">

<g transform="translate(0.000000,399.000000) scale(0.100000,-0.100000)"
fill="#000000" stroke="none">
<path d="M2970 3755 c-347 -38 -637 -152 -905 -354 -33 -25 -64 -51 -70 -58
-8 -9 -15 -8 -34 8 l-24 20 26 47 c75 139 31 267 -106 307 -67 19 -110 15
-158 -18 -47 -31 -73 -82 -79 -152 l-5 -60 -68 -6 c-59 -5 -72 -10 -101 -38
-62 -60 -74 -161 -28 -230 51 -75 135 -108 227 -89 27 6 55 15 62 20 14 11 53
-11 53 -30 0 -7 -17 -36 -38 -65 -160 -217 -277 -478 -321 -712 -44 -237 -42
-485 5 -724 34 -173 131 -409 231 -563 23 -37 43 -73 43 -81 0 -21 -24 -27
-62 -16 -77 22 -155 5 -215 -46 -123 -105 -42 -315 122 -315 l45 0 0 -45 c0
-63 34 -131 81 -162 32 -21 50 -25 104 -25 142 1 222 103 191 244 -7 32 -5 37
13 43 16 5 30 -2 54 -25 85 -80 270 -192 427 -258 191 -81 316 -112 541 -138
149 -17 163 -17 310 0 227 26 412 75 592 158 111 50 280 153 331 200 11 10 23
18 27 18 11 0 19 -29 19 -74 0 -54 43 -117 99 -146 60 -30 145 -28 198 6 53
35 73 70 81 147 l7 62 57 5 c62 6 100 27 134 78 40 58 38 155 -4 211 -26 36
-97 70 -159 77 -69 9 -82 17 -62 41 9 10 19 25 23 33 3 8 22 42 41 75 127 218
201 462 225 741 29 336 -55 708 -225 999 -19 33 -38 67 -42 75 -4 8 -35 53
-70 100 l-63 85 29 29 29 29 48 -17 c100 -34 196 -9 258 67 26 33 30 44 29
102 0 53 -5 73 -27 105 -36 54 -65 71 -136 77 l-60 6 0 46 c-1 131 -103 211
-232 182 -55 -12 -110 -55 -137 -108 -21 -42 -13 -123 19 -188 l31 -59 -30
-30 -30 -29 -34 26 c-20 15 -41 32 -49 39 -27 26 -251 168 -264 168 -2 0 -33
13 -67 29 -287 132 -615 188 -907 156z m1608 -52 c41 -31 62 -81 62 -150 l0
-63 64 0 c106 0 159 -52 160 -157 1 -63 -22 -98 -85 -131 -52 -27 -132 -27
-188 1 l-34 17 -146 -139 c-80 -76 -155 -149 -166 -161 -11 -12 -68 -67 -127
-122 l-107 -99 -81 83 -81 83 266 260 c146 143 265 265 265 271 0 6 -13 35
-30 65 -48 87 -39 169 23 228 47 43 155 51 205 14z m-2724 -7 c117 -35 149
-153 76 -276 l-30 -51 137 -132 c76 -73 193 -187 261 -253 l123 -122 -79 -81
c-44 -44 -82 -81 -84 -81 -3 0 -23 17 -45 38 -35 33 -424 406 -460 441 -13 12
-21 12 -51 1 -107 -38 -178 -30 -235 27 -61 61 -62 155 -3 218 32 34 36 35
104 35 79 0 82 3 82 88 0 69 33 121 92 147 42 18 54 18 112 1z m1496 -11 c190
-23 379 -79 545 -162 130 -65 325 -196 325 -218 0 -13 -45 -55 -58 -55 -6 0
-15 6 -19 14 -4 7 -47 39 -95 70 -204 133 -398 214 -598 250 -361 65 -702 22
-1015 -129 -105 -51 -256 -144 -301 -186 -26 -24 -33 -24 -68 8 -33 28 -36 21
30 69 15 11 31 24 38 29 121 105 442 247 659 290 175 36 373 43 557 20z
m-1516 -654 l27 -28 -67 -99 c-63 -93 -151 -264 -187 -364 -23 -66 -54 -185
-67 -265 -17 -98 -23 -109 -68 -127 l-40 -16 5 42 c22 205 83 407 181 596 56
109 169 290 181 290 4 0 20 -13 35 -29z m2714 -78 c120 -184 192 -341 241
-526 23 -85 55 -267 48 -273 -3 -3 -23 3 -45 13 l-41 17 -17 96 c-36 204 -142
464 -256 626 -29 41 -57 81 -62 88 -7 10 -1 22 19 40 15 14 31 26 35 26 4 0
39 -48 78 -107z m-1175 72 c247 -61 462 -203 600 -397 62 -88 68 -103 36 -95
-26 8 -216 32 -369 47 -166 17 -624 23 -835 11 -201 -11 -290 -20 -464 -47
-52 -8 -96 -12 -98 -10 -5 5 69 117 99 150 176 192 343 291 603 354 22 6 105
10 185 11 122 1 160 -3 243 -24z m287 -661 c258 -22 400 -44 650 -100 176 -40
499 -150 483 -164 -13 -12 -214 -46 -408 -70 -49 -6 -100 -14 -112 -17 -20 -4
-23 -1 -23 25 0 68 -54 140 -120 160 -19 6 -91 16 -160 22 -69 6 -136 13 -150
15 -14 3 -162 9 -330 14 -630 17 -1253 -21 -1363 -82 -51 -28 -86 -71 -98
-118 l-13 -49 -55 6 c-100 10 -401 57 -466 72 -28 7 -27 9 40 38 248 110 648
201 1075 245 284 29 732 30 1050 3z m200 -199 c274 -24 299 -32 319 -103 12
-40 -4 -236 -25 -310 -23 -84 -64 -191 -92 -242 -149 -274 -422 -471 -742
-536 -119 -24 -311 -15 -438 20 -200 56 -367 150 -503 286 -171 170 -259 359
-289 624 -23 200 18 225 420 261 245 21 303 23 765 19 264 -2 473 -9 585 -19z
m982 -231 c-5 -174 -51 -416 -102 -529 -5 -11 -18 -43 -29 -71 -45 -116 -185
-349 -204 -337 -24 15 -47 38 -47 48 0 6 16 34 36 64 60 89 143 265 183 389
46 139 69 266 79 422 l7 115 30 6 c17 4 35 6 40 4 6 -1 9 -44 7 -111z m-3335
83 c6 -4 11 -46 12 -94 2 -95 4 -113 27 -243 19 -100 35 -156 76 -265 33 -86
130 -280 154 -306 20 -22 18 -32 -14 -62 l-29 -28 -27 41 c-15 23 -53 92 -85
153 -119 231 -177 443 -188 689 l-6 137 35 -8 c20 -5 40 -11 45 -14z m732
-681 c22 -30 56 -70 76 -89 l35 -34 -250 -242 -249 -243 25 -40 c41 -64 57
-132 43 -176 -33 -103 -167 -153 -256 -95 -35 23 -63 92 -63 156 l0 57 -55 0
c-110 0 -167 55 -167 162 0 59 35 110 90 134 45 19 144 14 188 -9 29 -15 29
-15 94 46 36 33 149 143 252 244 103 101 189 183 191 183 3 0 23 -24 46 -54z
m2049 -200 c117 -116 218 -214 226 -218 7 -4 41 2 77 13 68 21 110 19 163 -8
38 -20 49 -31 70 -70 20 -40 20 -76 0 -128 -23 -60 -56 -79 -141 -83 l-73 -4
0 -60 c0 -69 -19 -117 -62 -153 -24 -20 -40 -25 -86 -25 -109 0 -172 58 -172
158 0 43 7 67 30 109 17 29 30 57 30 62 0 5 -102 111 -227 234 l-227 225 79
85 c43 47 83 83 89 80 6 -4 107 -101 224 -217z m-1463 -196 c25 -10 25 -10 9
-42 -9 -18 -18 -34 -19 -36 -4 -4 -95 37 -95 43 0 4 8 17 18 31 18 25 31 25
87 4z m729 -2 c24 -33 20 -43 -21 -61 -76 -32 -81 -32 -98 9 -8 20 -14 38 -12
40 6 6 83 32 99 33 9 0 24 -9 32 -21z m-577 -29 c50 -9 63 -15 59 -26 -3 -8
-6 -26 -6 -40 0 -26 0 -26 -65 -19 -35 4 -73 10 -84 14 -18 7 -18 9 -4 45 17
42 14 41 100 26z m412 -30 c7 -23 11 -43 8 -45 -2 -2 -31 -7 -64 -10 l-61 -7
-4 39 c-3 22 -4 40 -3 42 2 3 80 19 101 21 6 1 16 -17 23 -40z m-169 -29 l0
-40 -75 0 c-41 0 -75 4 -75 9 0 5 3 23 6 40 l7 31 68 0 69 0 0 -40z m-432 -55
c9 -8 -51 -143 -62 -140 -6 2 -23 6 -38 9 -26 6 -28 9 -28 62 0 30 7 68 15 84
l15 29 47 -20 c26 -11 49 -22 51 -24z m829 -49 l6 -64 -41 -13 c-22 -6 -47 -9
-54 -7 -13 5 -55 125 -47 132 2 2 29 12 59 24 66 24 68 22 77 -72z m-1502 -11
c121 -100 352 -227 497 -274 55 -19 73 -30 104 -69 21 -26 43 -51 49 -55 43
-34 -272 72 -390 131 -86 43 -238 137 -266 165 -8 7 -23 19 -35 27 -12 8 -42
33 -67 55 l-46 40 30 31 31 32 26 -25 c15 -14 45 -40 67 -58z m843 30 c51 -7
53 -8 48 -34 -3 -14 -8 -45 -11 -68 -7 -42 -8 -43 -43 -43 -36 0 -164 18 -169
24 -2 2 7 27 20 57 13 30 26 62 30 71 5 14 12 15 39 8 18 -5 57 -12 86 -15z
m1298 -6 l29 -30 -21 -17 c-12 -9 -52 -41 -90 -69 -38 -29 -73 -56 -79 -61
-25 -20 -138 -84 -220 -125 -81 -41 -298 -117 -332 -117 -8 0 4 22 28 52 35
44 51 55 107 75 166 57 436 215 521 305 22 22 23 22 57 -13z m-836 19 c0 -2
11 -33 23 -70 l24 -67 -21 -5 c-12 -2 -41 -7 -66 -11 l-45 -7 -18 69 c-9 37
-17 71 -17 75 0 6 32 11 98 16 12 1 22 1 22 0z m-153 -73 c7 -27 15 -60 18
-71 4 -20 0 -22 -69 -29 -41 -3 -100 -3 -131 0 l-55 7 6 37 c3 20 10 53 15 74
l10 38 97 -3 97 -3 12 -50z m-477 -114 c202 -49 532 -47 718 4 51 14 96 25 99
25 11 0 -6 -69 -31 -124 -32 -70 -118 -155 -193 -191 -128 -60 -337 -57 -471
7 -89 43 -177 131 -220 220 -38 81 -40 92 -9 85 12 -4 60 -15 107 -26z"/>
<path d="M2597 2000 c-158 -27 -268 -156 -275 -325 -5 -107 20 -175 91 -248
78 -80 131 -102 247 -102 85 0 101 3 152 29 120 61 188 170 188 303 0 129 -47
222 -147 291 -65 46 -168 66 -256 52z"/>
<path d="M3540 1996 c-71 -16 -109 -36 -163 -88 -54 -52 -82 -103 -98 -177
-32 -155 47 -312 191 -380 46 -22 69 -26 145 -26 76 0 98 4 145 26 211 101
264 367 109 543 -80 91 -206 130 -329 102z"/>
<path d="M3074 1370 c-29 -12 -64 -63 -71 -104 -3 -21 1 -47 12 -70 43 -91
152 -107 224 -34 27 27 31 39 31 82 -1 60 -15 90 -56 117 -31 20 -102 25 -140
9z"/>
</g>
</svg>
